<?xml version="1.0" encoding="UTF-8" standalone="no"?>
<svg
   xmlns:dc="http://purl.org/dc/elements/1.1/"
   xmlns:cc="http://web.resource.org/cc/"
   xmlns:rdf="http://www.w3.org/1999/02/22-rdf-syntax-ns#"
   xmlns:svg="http://www.w3.org/2000/svg"
   xmlns="http://www.w3.org/2000/svg"
   xmlns:sodipodi="http://inkscape.sourceforge.net/DTD/sodipodi-0.dtd"
   xmlns:inkscape="http://www.inkscape.org/namespaces/inkscape"
   style="fill-opacity:1; color-rendering:auto; color-interpolation:auto; text-rendering:auto; stroke:black; stroke-linecap:square; stroke-miterlimit:10; shape-rendering:auto; stroke-opacity:1; fill:black; stroke-dasharray:none; font-weight:normal; stroke-width:1; font-family:'Dialog'; font-style:normal; stroke-linejoin:miter; font-size:12; stroke-dashoffset:0; image-rendering:auto;"
   id="svg2"
   sodipodi:version="0.32"
   inkscape:version="0.43"
   width="210mm"
   height="297mm"
   sodipodi:docname="general_activite.svg"
   sodipodi:docbase="/home/alex/projets/egs3d/egs3d/egs3d-docs/trunk/uml">
  <metadata
     id="metadata443">
    <rdf:RDF>
      <cc:Work
         rdf:about="">
        <dc:format>image/svg+xml</dc:format>
        <dc:type
           rdf:resource="http://purl.org/dc/dcmitype/StillImage" />
      </cc:Work>
    </rdf:RDF>
  </metadata>
  <sodipodi:namedview
     inkscape:window-height="949"
     inkscape:window-width="1272"
     inkscape:pageshadow="2"
     inkscape:pageopacity="0.0"
     borderopacity="1.0"
     bordercolor="#666666"
     pagecolor="#ffffff"
     id="base"
     inkscape:zoom="1.4217471"
     inkscape:cx="232.92283"
     inkscape:cy="666.6928"
     inkscape:window-x="0"
     inkscape:window-y="0"
     inkscape:current-layer="svg2" />
<!--Generated by the Batik Graphics2D SVG Generator-->  <defs
     id="genericDefs">
    <defs
       id="defs1">
      <clipPath
         id="clipPath1"
         clipPathUnits="userSpaceOnUse">
        <path
           id="path9"
           d="M0 0 L391 0 L391 591 L0 591 L0 0 Z" />
      </clipPath>
      <clipPath
         id="clipPath2"
         clipPathUnits="userSpaceOnUse">
        <path
           id="path12"
           d="M260 454 L382 454 L382 474 L260 474 L260 454 Z" />
      </clipPath>
      <clipPath
         id="clipPath3"
         clipPathUnits="userSpaceOnUse">
        <path
           id="path15"
           d="M145 218 L221 218 L221 275 L145 275 L145 218 Z" />
      </clipPath>
      <clipPath
         id="clipPath4"
         clipPathUnits="userSpaceOnUse">
        <path
           id="path18"
           d="M148 237 L215 237 L215 268 L148 268 L148 237 Z" />
      </clipPath>
      <clipPath
         id="clipPath5"
         clipPathUnits="userSpaceOnUse">
        <path
           id="path21"
           d="M171 390 L201 390 L201 420 L171 420 L171 390 Z" />
      </clipPath>
      <clipPath
         id="clipPath6"
         clipPathUnits="userSpaceOnUse">
        <path
           id="path24"
           d="M0 455 L104 455 L104 475 L0 475 L0 455 Z" />
      </clipPath>
      <clipPath
         id="clipPath7"
         clipPathUnits="userSpaceOnUse">
        <path
           id="path27"
           d="M31 348 L125 348 L125 368 L31 368 L31 348 Z" />
      </clipPath>
      <clipPath
         id="clipPath8"
         clipPathUnits="userSpaceOnUse">
        <path
           id="path30"
           d="M230 348 L340 348 L340 368 L230 368 L230 348 Z" />
      </clipPath>
      <clipPath
         id="clipPath9"
         clipPathUnits="userSpaceOnUse">
        <path
           id="path33"
           d="M176 0 L196 0 L196 20 L176 20 L176 0 Z" />
      </clipPath>
      <clipPath
         id="clipPath10"
         clipPathUnits="userSpaceOnUse">
        <path
           id="path36"
           d="M175 570 L196 570 L196 591 L175 591 L175 570 Z" />
      </clipPath>
      <clipPath
         id="clipPath11"
         clipPathUnits="userSpaceOnUse">
        <path
           id="path39"
           d="M143 510 L229 510 L229 530 L143 530 L143 510 Z" />
      </clipPath>
      <clipPath
         id="clipPath12"
         clipPathUnits="userSpaceOnUse">
        <path
           id="path42"
           d="M44 170 L146 170 L146 190 L44 190 L44 170 Z" />
      </clipPath>
      <clipPath
         id="clipPath13"
         clipPathUnits="userSpaceOnUse">
        <path
           id="path45"
           d="M150 50 L222 50 L222 107 L150 107 L150 50 Z" />
      </clipPath>
      <clipPath
         id="clipPath14"
         clipPathUnits="userSpaceOnUse">
        <path
           id="path48"
           d="M153 69 L216 69 L216 100 L153 100 L153 69 Z" />
      </clipPath>
      <clipPath
         id="clipPath15"
         clipPathUnits="userSpaceOnUse">
        <path
           id="path51"
           d="M168 120 L198 120 L198 150 L168 150 L168 120 Z" />
      </clipPath>
      <clipPath
         id="clipPath16"
         clipPathUnits="userSpaceOnUse">
        <path
           id="path54"
           d="M221 170 L333 170 L333 190 L221 190 L221 170 Z" />
      </clipPath>
      <clipPath
         id="clipPath17"
         clipPathUnits="userSpaceOnUse">
        <path
           id="path57"
           d="M0 0 L391 0 L391 460 L0 460 L0 0 Z" />
      </clipPath>
      <clipPath
         id="clipPath18"
         clipPathUnits="userSpaceOnUse">
        <path
           id="path60"
           d="M378 322 L378 322 L378 332 L378 332 L378 322 Z" />
      </clipPath>
      <clipPath
         id="clipPath19"
         clipPathUnits="userSpaceOnUse">
        <path
           id="path63"
           d="M221 232 L229 232 L229 242 L221 242 L221 232 Z" />
      </clipPath>
      <clipPath
         id="clipPath20"
         clipPathUnits="userSpaceOnUse">
        <path
           id="path66"
           d="M0 0 L299 0 L299 458 L0 458 L0 0 Z" />
      </clipPath>
      <clipPath
         id="clipPath21"
         clipPathUnits="userSpaceOnUse">
        <path
           id="path69"
           d="M252 419 L252 419 L252 429 L252 429 L252 419 Z" />
      </clipPath>
      <clipPath
         id="clipPath22"
         clipPathUnits="userSpaceOnUse">
        <path
           id="path72"
           d="M291 447 L299 447 L299 458 L291 458 L291 447 Z" />
      </clipPath>
      <clipPath
         id="clipPath23"
         clipPathUnits="userSpaceOnUse">
        <path
           id="path75"
           d="M0 0 L195 0 L195 392 L0 392 L0 0 Z" />
      </clipPath>
      <clipPath
         id="clipPath24"
         clipPathUnits="userSpaceOnUse">
        <path
           id="path78"
           d="M180 386 L191 386 L191 392 L180 392 L180 386 Z" />
      </clipPath>
      <clipPath
         id="clipPath25"
         clipPathUnits="userSpaceOnUse">
        <path
           id="path81"
           d="M0 0 L146 0 L146 456 L0 456 L0 0 Z" />
      </clipPath>
      <clipPath
         id="clipPath26"
         clipPathUnits="userSpaceOnUse">
        <path
           id="path84"
           d="M41 329 L41 329 L41 339 L41 339 L41 329 Z" />
      </clipPath>
      <clipPath
         id="clipPath27"
         clipPathUnits="userSpaceOnUse">
        <path
           id="path87"
           d="M138 232 L146 232 L146 241 L138 241 L138 232 Z" />
      </clipPath>
      <clipPath
         id="clipPath28"
         clipPathUnits="userSpaceOnUse">
        <path
           id="path90"
           d="M0 0 L157 0 L157 349 L0 349 L0 0 Z" />
      </clipPath>
      <clipPath
         id="clipPath29"
         clipPathUnits="userSpaceOnUse">
        <path
           id="path93"
           d="M127 310 L127 310 L127 320 L127 320 L127 310 Z" />
      </clipPath>
      <clipPath
         id="clipPath30"
         clipPathUnits="userSpaceOnUse">
        <path
           id="path96"
           d="M149 275 L157 275 L157 283 L149 283 L149 275 Z" />
      </clipPath>
      <clipPath
         id="clipPath31"
         clipPathUnits="userSpaceOnUse">
        <path
           id="path99"
           d="M0 0 L277 0 L277 349 L0 349 L0 0 Z" />
      </clipPath>
      <clipPath
         id="clipPath32"
         clipPathUnits="userSpaceOnUse">
        <path
           id="path102"
           d="M249 299 L249 299 L249 309 L249 309 L249 299 Z" />
      </clipPath>
      <clipPath
         id="clipPath33"
         clipPathUnits="userSpaceOnUse">
        <path
           id="path105"
           d="M209 275 L217 275 L217 283 L209 283 L209 275 Z" />
      </clipPath>
      <clipPath
         id="clipPath34"
         clipPathUnits="userSpaceOnUse">
        <path
           id="path108"
           d="M0 0 L172 0 L172 219 L0 219 L0 0 Z" />
      </clipPath>
      <clipPath
         id="clipPath35"
         clipPathUnits="userSpaceOnUse">
        <path
           id="path111"
           d="M165 187 L165 187 L165 197 L165 197 L165 187 Z" />
      </clipPath>
      <clipPath
         id="clipPath36"
         clipPathUnits="userSpaceOnUse">
        <path
           id="path114"
           d="M163 211 L172 211 L172 219 L163 219 L163 211 Z" />
      </clipPath>
      <clipPath
         id="clipPath37"
         clipPathUnits="userSpaceOnUse">
        <path
           id="path117"
           d="M0 0 L222 0 L222 219 L0 219 L0 0 Z" />
      </clipPath>
      <clipPath
         id="clipPath38"
         clipPathUnits="userSpaceOnUse">
        <path
           id="path120"
           d="M217 199 L217 199 L217 209 L217 209 L217 199 Z" />
      </clipPath>
      <clipPath
         id="clipPath39"
         clipPathUnits="userSpaceOnUse">
        <path
           id="path123"
           d="M197 211 L206 211 L206 219 L197 219 L197 211 Z" />
      </clipPath>
      <clipPath
         id="clipPath40"
         clipPathUnits="userSpaceOnUse">
        <path
           id="path126"
           d="M0 0 L177 0 L177 459 L0 459 L0 0 Z" />
      </clipPath>
      <clipPath
         id="clipPath41"
         clipPathUnits="userSpaceOnUse">
        <path
           id="path129"
           d="M130 431 L130 431 L130 441 L130 441 L130 431 Z" />
      </clipPath>
      <clipPath
         id="clipPath42"
         clipPathUnits="userSpaceOnUse">
        <path
           id="path132"
           d="M74 448 L82 448 L82 459 L74 459 L74 448 Z" />
      </clipPath>
      <clipPath
         id="clipPath43"
         clipPathUnits="userSpaceOnUse">
        <path
           id="path135"
           d="M0 0 L177 0 L177 401 L0 401 L0 0 Z" />
      </clipPath>
      <clipPath
         id="clipPath44"
         clipPathUnits="userSpaceOnUse">
        <path
           id="path138"
           d="M144 371 L144 371 L144 381 L144 381 L144 371 Z" />
      </clipPath>
      <clipPath
         id="clipPath45"
         clipPathUnits="userSpaceOnUse">
        <path
           id="path141"
           d="M101 365 L109 365 L109 376 L101 376 L101 365 Z" />
      </clipPath>
      <clipPath
         id="clipPath46"
         clipPathUnits="userSpaceOnUse">
        <path
           id="path144"
           d="M0 0 L265 0 L265 401 L0 401 L0 0 Z" />
      </clipPath>
      <clipPath
         id="clipPath47"
         clipPathUnits="userSpaceOnUse">
        <path
           id="path147"
           d="M235 383 L235 383 L235 393 L235 393 L235 383 Z" />
      </clipPath>
      <clipPath
         id="clipPath48"
         clipPathUnits="userSpaceOnUse">
        <path
           id="path150"
           d="M257 366 L265 366 L265 376 L257 376 L257 366 Z" />
      </clipPath>
      <clipPath
         id="clipPath49"
         clipPathUnits="userSpaceOnUse">
        <path
           id="path153"
           d="M0 0 L196 0 L196 511 L0 511 L0 0 Z" />
      </clipPath>
      <clipPath
         id="clipPath50"
         clipPathUnits="userSpaceOnUse">
        <path
           id="path156"
           d="M181 505 L192 505 L192 511 L181 511 L181 505 Z" />
      </clipPath>
      <clipPath
         id="clipPath51"
         clipPathUnits="userSpaceOnUse">
        <path
           id="path159"
           d="M0 0 L194 0 L194 51 L0 51 L0 0 Z" />
      </clipPath>
      <clipPath
         id="clipPath52"
         clipPathUnits="userSpaceOnUse">
        <path
           id="path162"
           d="M179 45 L190 45 L190 51 L179 51 L179 45 Z" />
      </clipPath>
      <clipPath
         id="clipPath53"
         clipPathUnits="userSpaceOnUse">
        <path
           id="path165"
           d="M0 0 L195 0 L195 570 L0 570 L0 0 Z" />
      </clipPath>
      <clipPath
         id="clipPath54"
         clipPathUnits="userSpaceOnUse">
        <path
           id="path168"
           d="M180 564 L191 564 L191 570 L180 570 L180 564 Z" />
      </clipPath>
      <clipPath
         id="clipPath55"
         clipPathUnits="userSpaceOnUse">
        <path
           id="path171"
           d="M0 0 L174 0 L174 173 L0 173 L0 0 Z" />
      </clipPath>
      <clipPath
         id="clipPath56"
         clipPathUnits="userSpaceOnUse">
        <path
           id="path174"
           d="M149 154 L149 154 L149 164 L149 164 L149 154 Z" />
      </clipPath>
      <clipPath
         id="clipPath57"
         clipPathUnits="userSpaceOnUse">
        <path
           id="path177"
           d="M115 163 L123 163 L123 173 L115 173 L115 163 Z" />
      </clipPath>
      <clipPath
         id="clipPath58"
         clipPathUnits="userSpaceOnUse">
        <path
           id="path180"
           d="M0 0 L192 0 L192 122 L0 122 L0 0 Z" />
      </clipPath>
      <clipPath
         id="clipPath59"
         clipPathUnits="userSpaceOnUse">
        <path
           id="path183"
           d="M177 116 L188 116 L188 122 L177 122 L177 116 Z" />
      </clipPath>
      <clipPath
         id="clipPath60"
         clipPathUnits="userSpaceOnUse">
        <path
           id="path186"
           d="M0 0 L257 0 L257 173 L0 173 L0 0 Z" />
      </clipPath>
      <clipPath
         id="clipPath61"
         clipPathUnits="userSpaceOnUse">
        <path
           id="path189"
           d="M229 141 L229 141 L229 151 L229 151 L229 141 Z" />
      </clipPath>
      <clipPath
         id="clipPath62"
         clipPathUnits="userSpaceOnUse">
        <path
           id="path192"
           d="M249 163 L257 163 L257 173 L249 173 L249 163 Z" />
      </clipPath>
    </defs>
  </defs>
  <g
     id="g1747"
     inkscape:export-xdpi="90"
     inkscape:export-ydpi="90">
    <rect
       y="-1.1160791"
       x="-11.360275"
       height="693.20319"
       width="477.64526"
       id="rect1991"
       style="fill:#ffffff;fill-opacity:1;fill-rule:nonzero;stroke:#000000;stroke-width:1.28410816;stroke-linecap:round;stroke-linejoin:round;stroke-miterlimit:4;stroke-dasharray:none;stroke-dashoffset:0;stroke-opacity:1" />
    <rect
       id="rect200"
       height="18.55584"
       ry="15.000004"
       rx="15.000004"
       style="font-size:8px;fill:#cccccc;stroke:none;font-family:Arial"
       width="136.84932"
       y="531.44177"
       x="308.08862" />
    <rect
       id="rect202"
       height="18.55584"
       ry="15.000004"
       rx="15.000004"
       style="font-size:8px;fill:#999999;stroke:none;font-family:Arial"
       width="136.84932"
       y="530.28204"
       x="306.92886" />
    <rect
       id="rect204"
       height="18.55584"
       ry="15.000004"
       rx="15.000004"
       style="font-size:8px;fill:#666666;stroke:none;font-family:Arial"
       width="136.84932"
       y="529.12231"
       x="305.76913" />
    <rect
       id="rect206"
       height="18.55584"
       ry="15.000004"
       rx="15.000004"
       style="font-size:8px;fill:#333333;stroke:none;font-family:Arial"
       width="136.84932"
       y="527.96252"
       x="304.60938" />
    <rect
       id="rect208"
       height="17.396099"
       ry="15.000004"
       rx="15.000004"
       style="font-size:8px;fill:#ffffff;stroke:none;font-family:Arial"
       width="135.68958"
       y="527.96252"
       x="304.60938" />
    <rect
       id="rect210"
       height="17.396099"
       ry="15.000004"
       rx="15.000004"
       style="font-size:8px;fill:none;stroke:#000000;font-family:Arial"
       width="135.68958"
       y="527.96252"
       x="304.60938" />
    <text
       id="text212"
       xml:space="preserve"
       style="font-size:9.27791977px;fill:#000000;stroke:none;font-family:Arial"
       y="539.55994"
       x="319.686">enregistrement de la scène</text>
    <rect
       id="rect214"
       height="61.466221"
       ry="10.000003"
       rx="10.000003"
       style="font-size:8px;fill:#cccccc;stroke:none;font-family:Arial"
       width="83.501282"
       y="257.74313"
       x="174.71851" />
    <rect
       id="rect216"
       height="61.466221"
       ry="10.000003"
       rx="10.000003"
       style="font-size:8px;fill:#999999;stroke:none;font-family:Arial"
       width="83.501282"
       y="256.58337"
       x="173.55876" />
    <rect
       id="rect218"
       height="61.466221"
       ry="10.000003"
       rx="10.000003"
       style="font-size:8px;fill:#666666;stroke:none;font-family:Arial"
       width="83.501282"
       y="255.42365"
       x="172.39903" />
    <rect
       id="rect220"
       height="61.466221"
       ry="10.000003"
       rx="10.000003"
       style="font-size:8px;fill:#333333;stroke:none;font-family:Arial"
       width="83.501282"
       y="254.2639"
       x="171.23929" />
    <rect
       id="rect222"
       height="60.30648"
       ry="10.000003"
       rx="10.000003"
       style="font-size:8px;fill:#ffffff;stroke:none;font-family:Arial"
       width="82.341537"
       y="254.2639"
       x="171.23929" />
    <rect
       id="rect224"
       height="60.30648"
       ry="10.000003"
       rx="10.000003"
       style="font-size:8px;fill:none;stroke:#000000;font-family:Arial"
       width="82.341537"
       y="254.2639"
       x="171.23929" />
    <text
       id="text226"
       xml:space="preserve"
       style="font-size:9.27791977px;fill:#000000;stroke:none;font-family:Arial"
       y="265.8613"
       x="183.99643">scène affichée</text>
    <line
       id="line228"
       y2="272.81973"
       style="font-size:8px;fill:none;stroke:#000000;font-family:Arial"
       y1="272.81973"
       x2="253.58083"
       x1="171.23929" />
    <rect
       id="rect230"
       height="33.632462"
       style="font-size:8px;fill:#ffffff;stroke:none;font-family:Arial"
       width="75.383102"
       y="276.29895"
       x="174.71851" />
    <polygon
       transform="matrix(1.15974,0,0,1.15974,1.917248,0.280844)"
       id="polygon232"
       points="186,391 200,405 186,419 172,405 186,391 "
       style="font-size:8px;fill:#ffffff;stroke:none;font-family:Arial" />
    <polygon
       transform="matrix(1.15974,0,0,1.15974,1.917248,0.280844)"
       id="polygon234"
       points="186,391 200,405 186,419 172,405 186,391 "
       style="font-size:8px;fill:none;stroke:#000000;font-family:Arial" />
    <rect
       id="rect236"
       height="18.55584"
       ry="15.000004"
       rx="15.000004"
       style="font-size:8px;fill:#cccccc;stroke:none;font-family:Arial"
       width="115.974"
       y="532.6015"
       x="6.5562081" />
    <rect
       id="rect238"
       height="18.55584"
       ry="15.000004"
       rx="15.000004"
       style="font-size:8px;fill:#999999;stroke:none;font-family:Arial"
       width="115.974"
       y="531.44177"
       x="5.3964682" />
    <rect
       id="rect240"
       height="18.55584"
       ry="15.000004"
       rx="15.000004"
       style="font-size:8px;fill:#666666;stroke:none;font-family:Arial"
       width="115.974"
       y="530.28204"
       x="4.2367282" />
    <rect
       id="rect242"
       height="18.55584"
       ry="15.000004"
       rx="15.000004"
       style="font-size:8px;fill:#333333;stroke:none;font-family:Arial"
       width="115.974"
       y="529.12231"
       x="3.076988" />
    <rect
       id="rect244"
       height="17.396099"
       ry="15.000004"
       rx="15.000004"
       style="font-size:8px;fill:#ffffff;stroke:none;font-family:Arial"
       width="114.81426"
       y="529.12231"
       x="3.076988" />
    <rect
       id="rect246"
       height="17.396099"
       ry="15.000004"
       rx="15.000004"
       style="font-size:8px;fill:none;stroke:#000000;font-family:Arial"
       width="114.81426"
       y="529.12231"
       x="3.076988" />
    <text
       id="text248"
       xml:space="preserve"
       style="font-size:9.27791977px;fill:#000000;stroke:none;font-family:Arial"
       y="540.71967"
       x="16.993868">affichage du rendu 3D</text>
    <rect
       id="rect250"
       height="18.55584"
       ry="15.000004"
       rx="15.000004"
       style="font-size:8px;fill:#cccccc;stroke:none;font-family:Arial"
       width="104.3766"
       y="408.50934"
       x="42.508148" />
    <rect
       id="rect252"
       height="18.55584"
       ry="15.000004"
       rx="15.000004"
       style="font-size:8px;fill:#999999;stroke:none;font-family:Arial"
       width="104.3766"
       y="407.34958"
       x="41.348408" />
    <rect
       id="rect254"
       height="18.55584"
       ry="15.000004"
       rx="15.000004"
       style="font-size:8px;fill:#666666;stroke:none;font-family:Arial"
       width="104.3766"
       y="406.18985"
       x="40.188667" />
    <rect
       id="rect256"
       height="18.55584"
       ry="15.000004"
       rx="15.000004"
       style="font-size:8px;fill:#333333;stroke:none;font-family:Arial"
       width="104.3766"
       y="405.03009"
       x="39.028927" />
    <rect
       id="rect258"
       height="17.396099"
       ry="15.000004"
       rx="15.000004"
       style="font-size:8px;fill:#ffffff;stroke:none;font-family:Arial"
       width="103.21686"
       y="405.03009"
       x="39.028927" />
    <rect
       id="rect260"
       height="17.396099"
       ry="15.000004"
       rx="15.000004"
       style="font-size:8px;fill:none;stroke:#000000;font-family:Arial"
       width="103.21686"
       y="405.03009"
       x="39.028927" />
    <text
       id="text262"
       xml:space="preserve"
       style="font-size:9.27791977px;fill:#000000;stroke:none;font-family:Arial"
       y="416.6275"
       x="52.945808">génération du code</text>
    <rect
       id="rect264"
       height="18.55584"
       ry="15.000004"
       rx="15.000004"
       style="font-size:8px;fill:#cccccc;stroke:none;font-family:Arial"
       width="122.93244"
       y="408.50934"
       x="273.29642" />
    <rect
       id="rect266"
       height="18.55584"
       ry="15.000004"
       rx="15.000004"
       style="font-size:8px;fill:#999999;stroke:none;font-family:Arial"
       width="122.93244"
       y="407.34958"
       x="272.13666" />
    <rect
       id="rect268"
       height="18.55584"
       ry="15.000004"
       rx="15.000004"
       style="font-size:8px;fill:#666666;stroke:none;font-family:Arial"
       width="122.93244"
       y="406.18985"
       x="270.97693" />
    <rect
       id="rect270"
       height="18.55584"
       ry="15.000004"
       rx="15.000004"
       style="font-size:8px;fill:#333333;stroke:none;font-family:Arial"
       width="122.93244"
       y="405.03009"
       x="269.8172" />
    <rect
       id="rect272"
       height="17.396099"
       ry="15.000004"
       rx="15.000004"
       style="font-size:8px;fill:#ffffff;stroke:none;font-family:Arial"
       width="121.7727"
       y="405.03009"
       x="269.8172" />
    <rect
       id="rect274"
       height="17.396099"
       ry="15.000004"
       rx="15.000004"
       style="font-size:8px;fill:none;stroke:#000000;font-family:Arial"
       width="121.7727"
       y="405.03009"
       x="269.8172" />
    <text
       id="text276"
       xml:space="preserve"
       style="font-size:9.27791977px;fill:#000000;stroke:none;font-family:Arial"
       y="416.6275"
       x="283.73407">modification de la scène</text>
    <circle
       transform="matrix(1.15974,0,0,1.15974,1.917248,0.280844)"
       sodipodi:ry="7.5"
       sodipodi:rx="7.5"
       sodipodi:cy="9.5"
       sodipodi:cx="185.5"
       id="circle278"
       cy="9.5"
       cx="185.5"
       r="7.5"
       style="font-size:8px;fill:#000000;stroke:none;font-family:Arial" />
    <circle
       transform="matrix(1.15974,0,0,1.15974,1.917248,0.280844)"
       sodipodi:ry="6.5"
       sodipodi:rx="6.5"
       sodipodi:cy="580.5"
       sodipodi:cx="185.5"
       id="circle280"
       cy="580.5"
       cx="185.5"
       r="6.5"
       style="font-size:8px;fill:#000000;stroke:none;font-family:Arial" />
    <circle
       transform="matrix(1.15974,0,0,1.15974,1.917248,0.280844)"
       sodipodi:ry="9"
       sodipodi:rx="9"
       sodipodi:cy="580"
       sodipodi:cx="185"
       id="circle282"
       cy="580"
       cx="185"
       r="9"
       style="font-size:8px;fill:none;stroke:#000000;font-family:Arial" />
    <rect
       id="rect284"
       height="18.55584"
       ry="15.000004"
       rx="15.000004"
       style="font-size:8px;fill:#cccccc;stroke:none;font-family:Arial"
       width="95.098679"
       y="596.38721"
       x="172.39903" />
    <rect
       id="rect286"
       height="18.55584"
       ry="15.000004"
       rx="15.000004"
       style="font-size:8px;fill:#999999;stroke:none;font-family:Arial"
       width="95.098679"
       y="595.22748"
       x="171.23929" />
    <rect
       id="rect288"
       height="18.55584"
       ry="15.000004"
       rx="15.000004"
       style="font-size:8px;fill:#666666;stroke:none;font-family:Arial"
       width="95.098679"
       y="594.06775"
       x="170.07954" />
    <rect
       id="rect290"
       height="18.55584"
       ry="15.000004"
       rx="15.000004"
       style="font-size:8px;fill:#333333;stroke:none;font-family:Arial"
       width="95.098679"
       y="592.90796"
       x="168.91982" />
    <rect
       id="rect292"
       height="17.396099"
       ry="15.000004"
       rx="15.000004"
       style="font-size:8px;fill:#ffffff;stroke:none;font-family:Arial"
       width="93.938942"
       y="592.90796"
       x="168.91982" />
    <rect
       id="rect294"
       height="17.396099"
       ry="15.000004"
       rx="15.000004"
       style="font-size:8px;fill:none;stroke:#000000;font-family:Arial"
       width="93.938942"
       y="592.90796"
       x="168.91982" />
    <text
       id="text296"
       xml:space="preserve"
       style="font-size:9.27791977px;fill:#000000;stroke:none;font-family:Arial"
       y="604.50537"
       x="182.83669">sortie du logiciel</text>
    <rect
       id="rect298"
       height="18.55584"
       ry="15.000004"
       rx="15.000004"
       style="font-size:8px;fill:#cccccc;stroke:none;font-family:Arial"
       width="113.65452"
       y="202.07561"
       x="57.584766" />
    <rect
       id="rect300"
       height="18.55584"
       ry="15.000004"
       rx="15.000004"
       style="font-size:8px;fill:#999999;stroke:none;font-family:Arial"
       width="113.65452"
       y="200.91586"
       x="56.42503" />
    <rect
       id="rect302"
       height="18.55584"
       ry="15.000004"
       rx="15.000004"
       style="font-size:8px;fill:#666666;stroke:none;font-family:Arial"
       width="113.65452"
       y="199.75612"
       x="55.265289" />
    <rect
       id="rect304"
       height="18.55584"
       ry="15.000004"
       rx="15.000004"
       style="font-size:8px;fill:#333333;stroke:none;font-family:Arial"
       width="113.65452"
       y="198.59639"
       x="54.105549" />
    <rect
       id="rect306"
       height="17.396099"
       ry="15.000004"
       rx="15.000004"
       style="font-size:8px;fill:#ffffff;stroke:none;font-family:Arial"
       width="112.49478"
       y="198.59639"
       x="54.105549" />
    <rect
       id="rect308"
       height="17.396099"
       ry="15.000004"
       rx="15.000004"
       style="font-size:8px;fill:none;stroke:#000000;font-family:Arial"
       width="112.49478"
       y="198.59639"
       x="54.105549" />
    <text
       id="text310"
       xml:space="preserve"
       style="font-size:9.27791977px;fill:#000000;stroke:none;font-family:Arial"
       y="210.19379"
       x="70.341911">création d'une scène</text>
    <rect
       id="rect312"
       height="61.466221"
       ry="10.000003"
       rx="10.000003"
       style="font-size:8px;fill:#cccccc;stroke:none;font-family:Arial"
       width="78.86232"
       y="62.906803"
       x="180.51721" />
    <rect
       id="rect314"
       height="61.466221"
       ry="10.000003"
       rx="10.000003"
       style="font-size:8px;fill:#999999;stroke:none;font-family:Arial"
       width="78.86232"
       y="61.747063"
       x="179.35747" />
    <rect
       id="rect316"
       height="61.466221"
       ry="10.000003"
       rx="10.000003"
       style="font-size:8px;fill:#666666;stroke:none;font-family:Arial"
       width="78.86232"
       y="60.587322"
       x="178.19772" />
    <rect
       id="rect318"
       height="61.466221"
       ry="10.000003"
       rx="10.000003"
       style="font-size:8px;fill:#333333;stroke:none;font-family:Arial"
       width="78.86232"
       y="59.427586"
       x="177.03799" />
    <rect
       id="rect320"
       height="60.30648"
       ry="10.000003"
       rx="10.000003"
       style="font-size:8px;fill:#ffffff;stroke:none;font-family:Arial"
       width="77.702583"
       y="59.427586"
       x="177.03799" />
    <rect
       id="rect322"
       height="60.30648"
       ry="10.000003"
       rx="10.000003"
       style="font-size:8px;fill:none;stroke:#000000;font-family:Arial"
       width="77.702583"
       y="59.427586"
       x="177.03799" />
    <text
       id="text324"
       xml:space="preserve"
       style="font-size:9.27791977px;fill:#000000;stroke:none;font-family:Arial"
       y="71.024986"
       x="189.79514">logiciel lancé</text>
    <line
       id="line326"
       y2="77.983421"
       style="font-size:8px;fill:none;stroke:#000000;font-family:Arial"
       y1="77.983421"
       x2="254.74057"
       x1="177.03799" />
    <rect
       id="rect328"
       height="33.632462"
       style="font-size:8px;fill:#ffffff;stroke:none;font-family:Arial"
       width="70.744141"
       y="81.462646"
       x="180.51721" />
    <polygon
       transform="matrix(1.15974,0,0,1.15974,1.917248,0.280844)"
       id="polygon330"
       points="183,121 197,135 183,149 169,135 183,121 "
       style="font-size:8px;fill:#ffffff;stroke:none;font-family:Arial" />
    <polygon
       transform="matrix(1.15974,0,0,1.15974,1.917248,0.280844)"
       id="polygon332"
       points="183,121 197,135 183,149 169,135 183,121 "
       style="font-size:8px;fill:none;stroke:#000000;font-family:Arial" />
    <rect
       id="rect334"
       height="18.55584"
       ry="15.000004"
       rx="15.000004"
       style="font-size:8px;fill:#cccccc;stroke:none;font-family:Arial"
       width="125.25192"
       y="202.07561"
       x="262.85873" />
    <rect
       id="rect336"
       height="18.55584"
       ry="15.000004"
       rx="15.000004"
       style="font-size:8px;fill:#999999;stroke:none;font-family:Arial"
       width="125.25192"
       y="200.91586"
       x="261.69901" />
    <rect
       id="rect338"
       height="18.55584"
       ry="15.000004"
       rx="15.000004"
       style="font-size:8px;fill:#666666;stroke:none;font-family:Arial"
       width="125.25192"
       y="199.75612"
       x="260.53928" />
    <rect
       id="rect340"
       height="18.55584"
       ry="15.000004"
       rx="15.000004"
       style="font-size:8px;fill:#333333;stroke:none;font-family:Arial"
       width="125.25192"
       y="198.59639"
       x="259.37952" />
    <rect
       id="rect342"
       height="17.396099"
       ry="15.000004"
       rx="15.000004"
       style="font-size:8px;fill:#ffffff;stroke:none;font-family:Arial"
       width="124.09218"
       y="198.59639"
       x="259.37952" />
    <rect
       id="rect344"
       height="17.396099"
       ry="15.000004"
       rx="15.000004"
       style="font-size:8px;fill:none;stroke:#000000;font-family:Arial"
       width="124.09218"
       y="198.59639"
       x="259.37952" />
    <text
       id="text346"
       xml:space="preserve"
       style="font-size:9.27791977px;fill:#000000;stroke:none;font-family:Arial"
       y="210.19379"
       x="273.29642">chargement d'une scène</text>
    <path
       id="path350"
       style="font-size:0px;fill:none"
       d="M 444.93793,532.6015 L 454.21585,424.74568 L 410.14573,350.52232 L 258.21979,271.66" />
    <text
       id="text352"
       xml:space="preserve"
       style="font-size:9.27791977px;stroke:none;font-family:Arial"
       y="382.99506"
       x="440.29898" />
    <path
       id="path354"
       style="font-size:0px;fill:none"
       d="M 266.33797,269.34052 L 258.21979,271.66 L 260.53927,279.77818" />
    <path
       id="path356"
       style="font-size:0px;fill:none"
       d="M 229.22629,475.77424 L 347.51977,526.8028" />
    <text
       id="text358"
       xml:space="preserve"
       style="font-size:9.27791977px;stroke:none;font-family:Arial"
       y="495.48984"
       x="294.17172" />
    <path
       id="path360"
       style="font-size:0px;fill:none"
       d="M 339.40159,530.28202 L 347.51977,526.8028 L 344.04055,518.68462" />
    <path
       id="path362"
       style="font-size:0px;fill:none"
       d="M 216.46915,319.20934 L 216.46915,453.73918" />
    <path
       id="path364"
       style="font-size:0px;fill:none"
       d="M 210.67045,447.94048 L 216.46915,453.73918 L 222.26785,447.94048" />
    <path
       id="path366"
       style="font-size:0px;fill:none"
       d="M 6.556208,527.96254 L 11.195168,431.70412 L 71.501648,335.4457 L 170.07955,270.50026" />
    <text
       id="text368"
       xml:space="preserve"
       style="font-size:9.27791977px;stroke:none;font-family:Arial"
       y="391.11322"
       x="49.466587" />
    <path
       id="path370"
       style="font-size:0px;fill:none"
       d="M 168.91981,278.61844 L 170.07955,270.50026 L 161.96137,269.34052" />
    <path
       id="path372"
       style="font-size:0px;fill:none"
       d="M 102.81463,403.87036 L 182.83669,319.20934" />
    <text
       id="text374"
       xml:space="preserve"
       style="font-size:9.27791977px;stroke:none;font-family:Arial"
       y="369.07816"
       x="149.20422" />
    <path
       id="path376"
       style="font-size:0px;fill:none"
       d="M 182.83669,327.32752 L 182.83669,319.20934 L 174.71851,319.20934" />
    <path
       id="path378"
       style="font-size:0px;fill:none"
       d="M 322.00549,403.87036 L 244.30291,319.20934" />
    <text
       id="text380"
       xml:space="preserve"
       style="font-size:9.27791977px;stroke:none;font-family:Arial"
       y="356.32101"
       x="290.6925" />
    <path
       id="path382"
       style="font-size:0px;fill:none"
       d="M 252.42109,319.20934 L 244.30291,319.20934 L 244.30291,327.32752" />
    <path
       id="path384"
       style="font-size:0px;fill:none"
       d="M 171.23929,211.35352 L 199.07305,253.10416" />
    <text
       id="text386"
       xml:space="preserve"
       style="font-size:9.27791977px;stroke:none;font-family:Arial"
       y="226.43015"
       x="193.27435" />
    <path
       id="path388"
       style="font-size:0px;fill:none"
       d="M 190.95487,251.94442 L 199.07305,253.10416 L 200.23279,244.98598" />
    <path
       id="path390"
       style="font-size:0px;fill:none"
       d="M 258.21979,213.673 L 231.54577,253.10416" />
    <text
       id="text392"
       xml:space="preserve"
       style="font-size:9.27791977px;stroke:none;font-family:Arial"
       y="240.34703"
       x="253.58083" />
    <path
       id="path394"
       style="font-size:0px;fill:none"
       d="M 230.38603,244.98598 L 231.54577,253.10416 L 239.66395,251.94442" />
    <path
       id="path396"
       style="font-size:0px;fill:none"
       d="M 206.03149,475.77424 L 87.738008,527.96254" />
    <text
       id="text398"
       xml:space="preserve"
       style="font-size:9.27791977px;stroke:none;font-family:Arial"
       y="509.40671"
       x="152.68344" />
    <path
       id="path400"
       style="font-size:0px;fill:none"
       d="M 91.217228,519.84436 L 87.738008,527.96254 L 95.856188,531.44176" />
    <path
       id="path402"
       style="font-size:0px;fill:none"
       d="M 206.03149,464.17684 L 119.05099,427.06516" />
    <text
       id="text404"
       xml:space="preserve"
       style="font-size:9.27791977px;stroke:none;font-family:Arial"
       y="439.8223"
       x="168.91982" />
    <path
       id="path406"
       style="font-size:0px;fill:none"
       d="M 127.16917,423.58594 L 119.05099,427.06516 L 122.53021,435.18334" />
    <path
       id="path408"
       style="font-size:0px;fill:none"
       d="M 229.22629,464.17684 L 308.08861,427.06516" />
    <text
       id="text410"
       xml:space="preserve"
       style="font-size:9.27791977px;stroke:none;font-family:Arial"
       y="453.7392"
       x="274.45615" />
    <path
       id="path412"
       style="font-size:0px;fill:none"
       d="M 305.76913,435.18334 L 308.08861,427.06516 L 299.97043,424.74568" />
    <path
       id="path414"
       style="font-size:0px;fill:none"
       d="M 217.62889,487.37164 L 217.62889,591.74824" />
    <path
       id="path416"
       style="font-size:0px;fill:none"
       d="M 211.83019,585.94954 L 217.62889,591.74824 L 223.42759,585.94954" />
    <path
       id="path418"
       style="font-size:0px;fill:none"
       d="M 216.46915,22.315904 L 215.30941,58.267844" />
    <path
       id="path420"
       style="font-size:0px;fill:none"
       d="M 209.51071,52.469144 L 215.30941,58.267844 L 221.10811,52.469144" />
    <path
       id="path422"
       style="font-size:0px;fill:none"
       d="M 216.46915,614.94304 L 216.46915,660.1729" />
    <path
       id="path424"
       style="font-size:0px;fill:none"
       d="M 210.67045,654.3742 L 216.46915,660.1729 L 222.26785,654.3742" />
    <path
       id="path426"
       style="font-size:0px;fill:none"
       d="M 202.55227,162.64444 L 135.28735,197.43664" />
    <text
       id="text428"
       xml:space="preserve"
       style="font-size:9.27791977px;stroke:none;font-family:Arial"
       y="188.15872"
       x="174.71851" />
    <path
       id="path430"
       style="font-size:0px;fill:none"
       d="M 137.60683,189.31846 L 135.28735,197.43664 L 143.40553,199.75612" />
    <path
       id="path432"
       style="font-size:0px;fill:none"
       d="M 212.98993,124.37302 L 212.98993,140.60938" />
    <path
       id="path434"
       style="font-size:0px;fill:none"
       d="M 207.19123,134.81068 L 212.98993,140.60938 L 218.78863,134.81068" />
    <path
       id="path436"
       style="font-size:0px;fill:none"
       d="M 225.74707,162.64444 L 298.81069,197.43664" />
    <text
       id="text438"
       xml:space="preserve"
       style="font-size:9.27791977px;stroke:none;font-family:Arial"
       y="173.08211"
       x="267.49771" />
    <path
       id="path440"
       style="font-size:0px;fill:none"
       d="M 290.69251,199.75612 L 298.81069,197.43664 L 296.49121,189.31846" />
  </g>
</svg>
