<?xml version="1.0" encoding="UTF-8" standalone="no"?>
<svg
   xmlns:dc="http://purl.org/dc/elements/1.1/"
   xmlns:cc="http://web.resource.org/cc/"
   xmlns:rdf="http://www.w3.org/1999/02/22-rdf-syntax-ns#"
   xmlns:svg="http://www.w3.org/2000/svg"
   xmlns="http://www.w3.org/2000/svg"
   xmlns:sodipodi="http://inkscape.sourceforge.net/DTD/sodipodi-0.dtd"
   xmlns:inkscape="http://www.inkscape.org/namespaces/inkscape"
   style="fill-opacity:1; color-rendering:auto; color-interpolation:auto; text-rendering:auto; stroke:black; stroke-linecap:square; stroke-miterlimit:10; shape-rendering:auto; stroke-opacity:1; fill:black; stroke-dasharray:none; font-weight:normal; stroke-width:1; font-family:'Dialog'; font-style:normal; stroke-linejoin:miter; font-size:12; stroke-dashoffset:0; image-rendering:auto;"
   id="svg2"
   sodipodi:version="0.32"
   inkscape:version="0.43"
   width="210mm"
   height="297mm"
   sodipodi:docname="general_composants.svg"
   sodipodi:docbase="/home/alex/.eclipse/eclipse/workspace/testuml">
  <metadata
     id="metadata247">
    <rdf:RDF>
      <cc:Work
         rdf:about="">
        <dc:format>image/svg+xml</dc:format>
        <dc:type
           rdf:resource="http://purl.org/dc/dcmitype/StillImage" />
      </cc:Work>
    </rdf:RDF>
  </metadata>
  <sodipodi:namedview
     inkscape:window-height="949"
     inkscape:window-width="1272"
     inkscape:pageshadow="2"
     inkscape:pageopacity="0.0"
     borderopacity="1.0"
     bordercolor="#666666"
     pagecolor="#ffffff"
     id="base"
     inkscape:zoom="1.8193348"
     inkscape:cx="245.29651"
     inkscape:cy="942.52771"
     inkscape:window-x="0"
     inkscape:window-y="0"
     inkscape:current-layer="svg2" />
<!--Generated by the Batik Graphics2D SVG Generator-->  <defs
     id="genericDefs">
    <defs
       id="defs1">
      <clipPath
         id="clipPath1"
         clipPathUnits="userSpaceOnUse">
        <path
           id="path9"
           d="M0 0 L501 0 L501 201 L0 201 L0 0 Z" />
      </clipPath>
      <clipPath
         id="clipPath2"
         clipPathUnits="userSpaceOnUse">
        <path
           id="path12"
           d="M185 80 L329 80 L329 121 L185 121 L185 80 Z" />
      </clipPath>
      <clipPath
         id="clipPath3"
         clipPathUnits="userSpaceOnUse">
        <path
           id="path15"
           d="M184 160 L329 160 L329 201 L184 201 L184 160 Z" />
      </clipPath>
      <clipPath
         id="clipPath4"
         clipPathUnits="userSpaceOnUse">
        <path
           id="path18"
           d="M0 120 L145 120 L145 161 L0 161 L0 120 Z" />
      </clipPath>
      <clipPath
         id="clipPath5"
         clipPathUnits="userSpaceOnUse">
        <path
           id="path21"
           d="M193 0 L320 0 L320 41 L193 41 L193 0 Z" />
      </clipPath>
      <clipPath
         id="clipPath6"
         clipPathUnits="userSpaceOnUse">
        <path
           id="path24"
           d="M360 120 L501 120 L501 161 L360 161 L360 120 Z" />
      </clipPath>
      <clipPath
         id="clipPath7"
         clipPathUnits="userSpaceOnUse">
        <path
           id="path27"
           d="M0 0 L262 0 L262 161 L0 161 L0 0 Z" />
      </clipPath>
      <clipPath
         id="clipPath8"
         clipPathUnits="userSpaceOnUse">
        <path
           id="path30"
           d="M251 155 L262 155 L262 161 L251 161 L251 155 Z" />
      </clipPath>
      <clipPath
         id="clipPath9"
         clipPathUnits="userSpaceOnUse">
        <path
           id="path33"
           d="M0 0 L185 0 L185 121 L0 121 L0 0 Z" />
      </clipPath>
      <clipPath
         id="clipPath10"
         clipPathUnits="userSpaceOnUse">
        <path
           id="path36"
           d="M129 115 L140 115 L140 121 L129 121 L129 115 Z" />
      </clipPath>
      <clipPath
         id="clipPath11"
         clipPathUnits="userSpaceOnUse">
        <path
           id="path39"
           d="M0 0 L376 0 L376 121 L0 121 L0 0 Z" />
      </clipPath>
      <clipPath
         id="clipPath12"
         clipPathUnits="userSpaceOnUse">
        <path
           id="path42"
           d="M365 115 L376 115 L376 121 L365 121 L365 115 Z" />
      </clipPath>
      <clipPath
         id="clipPath13"
         clipPathUnits="userSpaceOnUse">
        <path
           id="path45"
           d="M0 0 L262 0 L262 81 L0 81 L0 0 Z" />
      </clipPath>
      <clipPath
         id="clipPath14"
         clipPathUnits="userSpaceOnUse">
        <path
           id="path48"
           d="M251 75 L262 75 L262 81 L251 81 L251 75 Z" />
      </clipPath>
      <clipPath
         id="clipPath15"
         clipPathUnits="userSpaceOnUse">
        <path
           id="path51"
           d="M0 0 L200 0 L200 161 L0 161 L0 0 Z" />
      </clipPath>
      <clipPath
         id="clipPath16"
         clipPathUnits="userSpaceOnUse">
        <path
           id="path54"
           d="M189 155 L200 155 L200 161 L189 161 L189 155 Z" />
      </clipPath>
      <clipPath
         id="clipPath17"
         clipPathUnits="userSpaceOnUse">
        <path
           id="path57"
           d="M0 0 L371 0 L371 176 L0 176 L0 0 Z" />
      </clipPath>
      <clipPath
         id="clipPath18"
         clipPathUnits="userSpaceOnUse">
        <path
           id="path60"
           d="M328 165 L334 165 L334 176 L328 176 L328 165 Z" />
      </clipPath>
    </defs>
  </defs>
  <g
     id="g2644"
     inkscape:export-xdpi="90"
     inkscape:export-ydpi="90">
    <rect
       y="-6.477119"
       x="-6.6826892"
       height="213.68602"
       width="512.44891"
       id="rect1769"
       style="opacity:1;fill:#ffffff;fill-opacity:1;fill-rule:nonzero;stroke:#000000;stroke-width:0.93755907;stroke-linecap:round;stroke-linejoin:round;stroke-miterlimit:4;stroke-dasharray:none;stroke-dashoffset:0;stroke-opacity:1" />
    <g
       inkscape:export-ydpi="90"
       inkscape:export-xdpi="90"
       id="g1675">
      <g
         id="g66"
         style="font-size:8px;fill:#cccccc;stroke:#cccccc;font-family:Arial">
        <rect
           id="rect68"
           height="37"
           style="stroke:none"
           width="132"
           y="84"
           x="197" />
        <rect
           id="rect70"
           height="37"
           style="fill:#999999;stroke:none"
           width="132"
           y="83"
           x="196" />
        <rect
           id="rect72"
           height="37"
           style="fill:#666666;stroke:none"
           width="132"
           y="82"
           x="195" />
        <rect
           id="rect74"
           height="37"
           style="fill:#333333;stroke:none"
           width="132"
           y="81"
           x="194" />
        <rect
           id="rect76"
           height="36"
           style="fill:#ffffff;stroke:none"
           width="131"
           y="81"
           x="194" />
        <rect
           id="rect78"
           height="36"
           style="fill:none;stroke:#000000"
           width="131"
           y="81"
           x="194" />
        <rect
           id="rect80"
           height="7"
           style="fill:#ffffff;stroke:none"
           width="16"
           y="85"
           x="185" />
        <rect
           id="rect82"
           height="7"
           style="fill:none;stroke:#000000"
           width="16"
           y="85"
           x="185" />
        <rect
           id="rect84"
           height="7"
           style="fill:#ffffff;stroke:none"
           width="16"
           y="98"
           x="185" />
        <rect
           id="rect86"
           height="7"
           style="fill:none;stroke:#000000"
           width="16"
           y="98"
           x="185" />
        <text
           id="text88"
           xml:space="preserve"
           style="fill:#000000;stroke:none"
           y="89"
           x="249">«greffon»</text>
        <text
           id="text90"
           xml:space="preserve"
           style="fill:#000000;stroke:none"
           y="99"
           x="245">org.egs3d.ui</text>
        <rect
           id="rect92"
           height="37"
           style="stroke:none"
           width="133"
           y="164"
           x="196" />
        <rect
           id="rect94"
           height="37"
           style="fill:#999999;stroke:none"
           width="133"
           y="163"
           x="195" />
        <rect
           id="rect96"
           height="37"
           style="fill:#666666;stroke:none"
           width="133"
           y="162"
           x="194" />
        <rect
           id="rect98"
           height="37"
           style="fill:#333333;stroke:none"
           width="133"
           y="161"
           x="193" />
        <rect
           id="rect100"
           height="36"
           style="fill:#ffffff;stroke:none"
           width="132"
           y="161"
           x="193" />
        <rect
           id="rect102"
           height="36"
           style="fill:none;stroke:#000000"
           width="132"
           y="161"
           x="193" />
        <rect
           id="rect104"
           height="7"
           style="fill:#ffffff;stroke:none"
           width="16"
           y="165"
           x="184" />
        <rect
           id="rect106"
           height="7"
           style="fill:none;stroke:#000000"
           width="16"
           y="165"
           x="184" />
        <rect
           id="rect108"
           height="7"
           style="fill:#ffffff;stroke:none"
           width="16"
           y="178"
           x="184" />
        <rect
           id="rect110"
           height="7"
           style="fill:none;stroke:#000000"
           width="16"
           y="178"
           x="184" />
        <text
           id="text112"
           xml:space="preserve"
           style="fill:#000000;stroke:none"
           y="169"
           x="249">«greffon»</text>
        <text
           id="text114"
           xml:space="preserve"
           style="fill:#000000;stroke:none"
           y="179"
           x="240">org.egs3d.core</text>
        <rect
           id="rect116"
           height="37"
           style="stroke:none"
           width="133"
           y="124"
           x="12" />
        <rect
           id="rect118"
           height="37"
           style="fill:#999999;stroke:none"
           width="133"
           y="123"
           x="11" />
        <rect
           id="rect120"
           height="37"
           style="fill:#666666;stroke:none"
           width="133"
           y="122"
           x="10" />
        <rect
           id="rect122"
           height="37"
           style="fill:#333333;stroke:none"
           width="133"
           y="121"
           x="9" />
        <rect
           id="rect124"
           height="36"
           style="fill:#ffffff;stroke:none"
           width="132"
           y="121"
           x="9" />
        <rect
           id="rect126"
           height="36"
           style="fill:none;stroke:#000000"
           width="132"
           y="121"
           x="9" />
        <rect
           id="rect128"
           height="7"
           style="fill:#ffffff;stroke:none"
           width="16"
           y="125"
           x="0" />
        <rect
           id="rect130"
           height="7"
           style="fill:none;stroke:#000000"
           width="16"
           y="125"
           x="0" />
        <rect
           id="rect132"
           height="7"
           style="fill:#ffffff;stroke:none"
           width="16"
           y="138"
           x="0" />
        <rect
           id="rect134"
           height="7"
           style="fill:none;stroke:#000000"
           width="16"
           y="138"
           x="0" />
        <text
           id="text136"
           xml:space="preserve"
           style="fill:#000000;stroke:none"
           y="129"
           x="65">«greffon»</text>
        <text
           id="text138"
           xml:space="preserve"
           style="fill:#000000;stroke:none"
           y="139"
           x="38">org.egs3d.core.resources</text>
        <rect
           id="rect140"
           height="37"
           style="stroke:none"
           width="115"
           y="4"
           x="205" />
        <rect
           id="rect142"
           height="37"
           style="fill:#999999;stroke:none"
           width="115"
           y="3"
           x="204" />
        <rect
           id="rect144"
           height="37"
           style="fill:#666666;stroke:none"
           width="115"
           y="2"
           x="203" />
        <rect
           id="rect146"
           height="37"
           style="fill:#333333;stroke:none"
           width="115"
           y="1"
           x="202" />
        <rect
           id="rect148"
           height="36"
           style="fill:#ffffff;stroke:none"
           width="114"
           y="1"
           x="202" />
        <rect
           id="rect150"
           height="36"
           style="fill:none;stroke:#000000"
           width="114"
           y="1"
           x="202" />
        <rect
           id="rect152"
           height="7"
           style="fill:#ffffff;stroke:none"
           width="16"
           y="5"
           x="193" />
        <rect
           id="rect154"
           height="7"
           style="fill:none;stroke:#000000"
           width="16"
           y="5"
           x="193" />
        <rect
           id="rect156"
           height="7"
           style="fill:#ffffff;stroke:none"
           width="16"
           y="18"
           x="193" />
        <rect
           id="rect158"
           height="7"
           style="fill:none;stroke:#000000"
           width="16"
           y="18"
           x="193" />
        <text
           id="text160"
           xml:space="preserve"
           style="fill:#000000;stroke:none"
           y="9"
           x="243">«application»</text>
        <text
           id="text162"
           xml:space="preserve"
           style="fill:#000000;stroke:none"
           y="19"
           x="242">org.egs3d.rcp</text>
        <rect
           id="rect164"
           height="37"
           style="stroke:none"
           width="129"
           y="124"
           x="372" />
        <rect
           id="rect166"
           height="37"
           style="fill:#999999;stroke:none"
           width="129"
           y="123"
           x="371" />
        <rect
           id="rect168"
           height="37"
           style="fill:#666666;stroke:none"
           width="129"
           y="122"
           x="370" />
        <rect
           id="rect170"
           height="37"
           style="fill:#333333;stroke:none"
           width="129"
           y="121"
           x="369" />
        <rect
           id="rect172"
           height="36"
           style="fill:#ffffff;stroke:none"
           width="128"
           y="121"
           x="369" />
        <rect
           id="rect174"
           height="36"
           style="fill:none;stroke:#000000"
           width="128"
           y="121"
           x="369" />
        <rect
           id="rect176"
           height="7"
           style="fill:#ffffff;stroke:none"
           width="16"
           y="125"
           x="360" />
        <rect
           id="rect178"
           height="7"
           style="fill:none;stroke:#000000"
           width="16"
           y="125"
           x="360" />
        <rect
           id="rect180"
           height="7"
           style="fill:#ffffff;stroke:none"
           width="16"
           y="138"
           x="360" />
        <rect
           id="rect182"
           height="7"
           style="fill:none;stroke:#000000"
           width="16"
           y="138"
           x="360" />
        <text
           id="text184"
           xml:space="preserve"
           style="fill:#000000;stroke:none"
           y="129"
           x="423">«greffon»</text>
        <text
           id="text186"
           xml:space="preserve"
           style="fill:#000000;stroke:none"
           y="139"
           x="407">org.egs3d.codegen</text>
      </g>
      <g
         id="g188"
         style="font-size:0px">
        <line
           id="line190"
           y2="134"
           style="fill:none"
           y1="120"
           x2="256"
           x1="256" />
        <line
           id="line192"
           y2="154"
           style="fill:none"
           y1="140"
           x2="256"
           x1="256" />
        <line
           id="line194"
           y2="160"
           style="fill:none"
           y1="160"
           x2="256"
           x1="256" />
        <path
           id="path196"
           style="fill:none"
           d="M 251,155 L 256,160 L 261,155" />
        <line
           id="line198"
           y2="110"
           style="fill:none"
           y1="110"
           x2="148"
           x1="134" />
        <line
           id="line200"
           y2="110"
           style="fill:none"
           y1="110"
           x2="168"
           x1="154" />
        <line
           id="line202"
           y2="110"
           style="fill:none"
           y1="110"
           x2="184"
           x1="174" />
        <line
           id="line204"
           y2="120"
           style="fill:none"
           y1="110"
           x2="134"
           x1="134" />
        <path
           id="path206"
           style="fill:none"
           d="M 129,115 L 134,120 L 139,115" />
        <line
           id="line208"
           y2="110"
           style="fill:none"
           y1="110"
           x2="342"
           x1="328" />
        <line
           id="line210"
           y2="110"
           style="fill:none"
           y1="110"
           x2="362"
           x1="348" />
        <line
           id="line212"
           y2="110"
           style="fill:none"
           y1="110"
           x2="370"
           x1="368" />
        <line
           id="line214"
           y2="120"
           style="fill:none"
           y1="110"
           x2="370"
           x1="370" />
        <path
           id="path216"
           style="fill:none"
           d="M 365,115 L 370,120 L 375,115" />
        <line
           id="line218"
           y2="54"
           style="fill:none"
           y1="40"
           x2="256"
           x1="256" />
        <line
           id="line220"
           y2="74"
           style="fill:none"
           y1="60"
           x2="256"
           x1="256" />
        <line
           id="line222"
           y2="80"
           style="fill:none"
           y1="80"
           x2="256"
           x1="256" />
        <path
           id="path224"
           style="fill:none"
           d="M 251,75 L 256,80 L 261,75" />
        <line
           id="line226"
           y2="150"
           style="fill:none"
           y1="150"
           x2="158"
           x1="144" />
        <line
           id="line228"
           y2="150"
           style="fill:none"
           y1="150"
           x2="178"
           x1="164" />
        <line
           id="line230"
           y2="150"
           style="fill:none"
           y1="150"
           x2="194"
           x1="184" />
        <line
           id="line232"
           y2="160"
           style="fill:none"
           y1="150"
           x2="194"
           x1="194" />
        <path
           id="path234"
           style="fill:none"
           d="M 189,155 L 194,160 L 199,155" />
        <line
           id="line236"
           y2="170"
           style="fill:none"
           y1="160"
           x2="370"
           x1="370" />
        <line
           id="line238"
           y2="170"
           style="fill:none"
           y1="170"
           x2="342"
           x1="328" />
        <line
           id="line240"
           y2="170"
           style="fill:none"
           y1="170"
           x2="362"
           x1="348" />
        <line
           id="line242"
           y2="170"
           style="fill:none"
           y1="170"
           x2="370"
           x1="368" />
        <path
           id="path244"
           style="fill:none"
           d="M 333,165 L 328,170 L 333,175" />
      </g>
    </g>
  </g>
</svg>
