/* XPM */
static char *egs32[] = {
/* columns rows colors chars-per-pixel */
"32 32 93 2",
"   c black",
".  c #030207",
"X  c #060306",
"o  c #06050E",
"O  c #0C060C",
"+  c gray6",
"@  c #0C0B1C",
"#  c #001319",
"$  c #190C19",
"%  c #190C1C",
"&  c #161316",
"*  c #1C161C",
"=  c gray12",
"-  c #0F0E23",
";  c #120B21",
":  c #190C26",
">  c #12112A",
",  c #161331",
"<  c #191638",
"1  c #002633",
"2  c #002F3F",
"3  c #2C162C",
"4  c #2B1A3B",
"5  c #331933",
"6  c #391C39",
"7  c #3F1F3F",
"8  c #2F2F2F",
"9  c #3F3F3F",
"0  c #1C1940",
"q  c #1F1C47",
"w  c #00394C",
"e  c #221F4E",
"r  c #252155",
"t  c #28245C",
"y  c #2F2A6A",
"u  c #372D6F",
"i  c #3B2D6F",
"p  c #3E2D6E",
"a  c #322D71",
"s  c #352D73",
"d  c #372D76",
"f  c #3E2D74",
"g  c #3B2D78",
"h  c #3E2D7B",
"j  c #004259",
"k  c #462346",
"l  c #522952",
"z  c #5F2F5F",
"x  c #412E6D",
"c  c #452F6D",
"v  c #4C2F6B",
"b  c #412E7D",
"n  c #4C2F77",
"m  c #513069",
"M  c #5B3167",
"N  c #5F3167",
"B  c #583168",
"V  c #623166",
"C  c #663366",
"Z  c #663369",
"A  c #66336C",
"S  c #66336F",
"D  c #663372",
"F  c #663375",
"G  c #663379",
"H  c #66337F",
"J  c gray31",
"K  c #5F5F5F",
"L  c #6F6F6F",
"P  c gray50",
"I  c #00698C",
"U  c #007CA5",
"Y  c #452F80",
"T  c #482F82",
"R  c #4C2F84",
"E  c #4F2F87",
"W  c #513089",
"Q  c #58318E",
"!  c #663382",
"~  c #663389",
"^  c #623196",
"/  c #663395",
"(  c #663399",
")  c #008FBF",
"_  c #0099CC",
"`  c gray56",
"'  c #9F9F9F",
"]  c #AFAFAF",
"[  c gray75",
"{  c gray81",
"}  c #DFDFDF",
"|  c #EFEFEF",
" . c gray100",
/* pixels */
"a a a a a a a a a a a a a a a a a a a a a a a a a a a a a a a a ",
"a a a a a a a a a a a a a a a a a a a a a a a a a a a a a a a a ",
"a a a a a a a a a a d R n v v v x a a a a a a a a a a a a a a a ",
"a a a a a a a a a R / F C C C C C N s a a a a a a a a a a a a a ",
"a a a a a a a a W / A C C C C C C C N u a a a a a a a a a a a a ",
"a a a a a a a R ( D C C C C C C C C C M a a a a a a a a a a a a ",
"a a a a a a g ( ! C C C C C C C C C C C v a a a a a a a a a a a ",
"a a a a a a W ( A C C C C C C C C C C C N a a a a a a a a a a a ",
"a a a a a s ( ~ C C C C C C C C C C C C C p a a a a a a a a a a ",
"a a r t a T ( F C z 6 C C C C C C C C C C m a q @ o     . 0 a a ",
"a a . 8               7 C C C C C C C C C V , 9 ] }  . .{ L > a ",
"a y    . . . . . . .L 5 C C C C C C C C C 7 = |  .' 9 }  . .9 e ",
"a -    . . .L 9 9 9 + 5 C l 5 3 $ $ 5 k l $ '  . .J   + P P 8 q ",
"a @    . . .      X 6 z 7 & L ` [ [ P 9   X [  . .' +     o 0 a ",
"a @    . . .` P P K * 6 =  . .[ ` `  . .K   P  . . . .] J   > a ",
"a @    . . . . . . .9 O P  .|       }  .|     L }  . . . .| K > ",
"a @    . . .L 9 9 9     [  . .        9           8 P }  . .[ @ ",
"a @    . . .      O O    . . .        X z X   9 8     8  . .[ @ ",
"_ 1    . . .` P P P +    . . .  #           ]  . .8   9  . .' 1 ",
"a @    . . . . . . .K    . . .    ]  . . .  =  . .} [ }  .{ = 0 ",
"_ 1   [  . . . . . .9   }  . .      {  . .    + P P P P K   w ) ",
"_ 1                     [  . .      }  . .                j _ _ ",
"a < @ @ ; : % $ $ 7     L |  .{ [ [ J '  .  .         . < a a a ",
"_ _ _ _ _ _ _ _ _ _ #     9 P P P 8   + L + U _ _ _ _ _ _ _ _ _ ",
"a a a a a Q / Z C C 5           X $     5 4 a a a a a a a a a a ",
"_ _ _ _ _ _ _ _ _ _ _ I 2 1 1 2 U U 1 2 _ _ _ _ _ _ _ _ _ _ _ _ ",
"a a a a a a b ^ H C C C C C C C C C C V x a a a a a a a a a a a ",
"a a a a a a a Y ( G C C C C C C C C C c a a a a a a a a a a a a ",
"a a a a a a a a g Q ~ A C C C C C B i a a a a a a a a a a a a a ",
"a a a a a a a a a a s h f p p p u a a a a a a a a a a a a a a a ",
"a a a a a a a a a a a a a a a a a a a a a a a a a a a a a a a a ",
"a a a a a a a a a a a a a a a a a a a a a a a a a a a a a a a a "
};
